<svg width="1440" height="255" viewBox="0 0 1440 255" fill="none" xmlns="http://www.w3.org/2000/svg">
<path d="M740.233 3.13294C458.731 9.6912 110.785 239.777 -28 354H1410C1304.04 234.312 1021.73 -3.42533 740.233 3.13294Z" fill="#A99482"/>
<path d="M191.767 3.13294C-89.9308 9.6912 -438.118 239.777 -577 354H862C755.963 234.312 473.465 -3.42533 191.767 3.13294Z" fill="#A99482"/>
<path d="M1277.77 0.132935C996.069 6.6912 647.882 236.777 509 351H1948C1841.96 231.312 1559.47 -6.42533 1277.77 0.132935Z" fill="#A99482"/>
<path d="M633.01 48C630.177 61.5 631.61 90.2 660.01 97C665.01 89.6667 666.61 69.6 633.01 48Z" fill="#FFD7A5"/>
<path d="M716.32 58.6964C705.647 67.4349 688.765 90.6885 706.621 113.796C715.115 111.219 728.946 96.5926 716.32 58.6964Z" fill="#FFD7A5"/>
<path d="M793.803 43.2914C780.878 48.1106 757.386 64.6585 766.814 92.2973C775.684 92.6049 793.501 83.2342 793.803 43.2914Z" fill="#FFD7A5"/>

</svg>
